<?xml version="1.0" encoding="utf-8"?>
<!-- Generator: Adobe Illustrator 25.2.1, SVG Export Plug-In . SVG Version: 6.00 Build 0)  -->
<svg version="1.1" id="Capa_1" xmlns="http://www.w3.org/2000/svg" xmlns:xlink="http://www.w3.org/1999/xlink" x="0px" y="0px"
	 viewBox="0 0 1080 1080" style="enable-background:new 0 0 1080 1080;" xml:space="preserve">
<style type="text/css">
	.st0{fill:#FFFFFF;}
</style>
<g>
	<g>
		<g>
			<g>
				<path d="M225.9,697.6c-0.9-1.6-2.3-2.9-4.8-2.9H221c-3.5,0-5.8,2.8-5.8,7.4v10.4h22.5v-10.7c0-5.1-2.1-8.4-6.2-8.4h-0.1
					C228.4,693.4,226.9,695,225.9,697.6z M219.5,707.7v-4.9c0-2.1,0.8-3.2,2.3-3.2h0.1c1.7,0,2.4,1.4,2.4,3.6v4.6H219.5z
					 M230.9,698.3c1.7,0,2.4,1.3,2.4,3.5v5.9h-4.9V702C228.4,699.4,229.3,698.3,230.9,698.3L230.9,698.3z"/>
				<path d="M215,652.8v4.6l22.7,9.6v-5l-5.1-2.1v-9.5l5.1-2.1v-5.2L215,652.8z M228.2,658.1l-7.3-3l7.3-3V658.1z"/>
				<path d="M215.2,631v8.8h22.5V631c0-7.1-4.9-11.9-11.2-11.9h-0.1C220,619.1,215.2,623.9,215.2,631z M226.5,624.2
					c4,0,6.7,2.7,6.7,6.8v3.8h-13.6V631C219.6,627,222.4,624.2,226.5,624.2L226.5,624.2z"/>
			</g>
			<g>
				<path d="M321.8,683.6c-7.1,6.4-13.4,10.6-23.7,10.6c-15.5,0-26.2-13-26.2-28.4v-0.3c0-15.5,11-28.1,26.2-28.1
					c9,0,16.1,3.9,23.1,10.3l12.7-14.6c-8.4-8.2-18.6-13.9-35.6-13.9c-27.8,0-47.1,21.1-47.1,46.7v0.3c0,25.9,19.8,46.4,46.4,46.4
					c17.4,0,27.7-6.2,37-16.1L321.8,683.6z"/>
				<path d="M395.4,620H377l-38.7,91h20.2l8.2-20.3H405l8.3,20.3H434L395.4,620z M374,673.1l12-29.2l12,29.2H374z"/>
				<path d="M504.1,620.6v55.7l-42.3-55.7h-18.4V711h19.6v-57.5l43.7,57.5h16.9v-90.4H504.1z"/>
				<path d="M542.4,620.6V711h16.9l43.7-57.5V711h19.6v-90.4h-18.3l-42.3,55.7v-55.7H542.4z"/>
				<path d="M661.1,693.2v-18.9h42.6v-17.7h-42.6v-18.4h48.4v-17.7h-68.1V711h68.8v-17.7H661.1z"/>
				<path d="M745.2,692.9v-72.3h-19.9V711h64.9v-18.1H745.2z"/>
				<path d="M819.9,692.9v-72.3h-19.8V711H865v-18.1H819.9z"/>
			</g>
		</g>
		<g>
			<path d="M502.8,498.5c1.6-4,3.5-7.8,6.1-11.3c1.4-1.8,2.9-3.4,4.8-4.7c1.5-1.1,3.1-1.8,4.9-2.3c0.3-0.1,0.6-0.1,0.8-0.1
				c0.9,0,1.5,0.5,1.7,1.4c0.2,0.8,0.1,1.6,0,2.3c-0.4,2.4-1.6,4.3-3.3,6c-1.1,1.2-2.4,2.2-3.7,3.1c-3.1,2.3-6.6,4.3-10.2,5.7
				C503.4,498.8,503.1,499,502.8,498.5z"/>
			<path d="M499.3,492.4c-1.4,2.6-2.6,5.4-3.2,8.4c-0.3,1.5-0.3,3-0.2,4.4c-4.5-7.5-7.1-16.4-7.1-25.8c0-6.5,1.3-12.7,3.5-18.5h15.9
				c8.1,0,16.2,0,24.4,0.1h5.3c0.4,0,0.9,0.1,1.5,0.1c-0.2,0.9-0.4,1.8-0.6,2.6c-1.7,7.7-3.5,15.4-5.7,23c-0.8,2.9-1.8,5.8-3,8.5
				c-2.4,5-5.8,9.3-10.1,12.8c-2.1,1.6-4.5,2.9-7.2,3.5c-2,0.4-4,0.6-6.1,0.3c-2.4-0.3-4-1.9-4.6-4.4c-0.2-1.2-0.2-2.5-0.2-3.7v-1.4
				c0.1-1,0.3-1.3,1.2-1.4c1.6-0.2,3.1-0.5,4.6-0.9c4.9-1.4,9-3.8,12.8-7.2c1.5-1.3,2.7-2.7,3.5-4.5c1-2,1.4-4.2,1.1-6.5
				c-0.3-2.8-2.2-4.6-5.1-4.6c-3.1,0-5.9,0.7-8.5,2.3c-1.2,0.7-2.3,1.6-3.4,2.4C504.7,484.9,501.6,488.3,499.3,492.4z"/>
			<path d="M583.9,453.1h-87.7c8.9-14.9,25.2-25,43.9-25C558.6,428.2,574.9,438.2,583.9,453.1z"/>
			<path d="M584.2,459.6c0.1-0.8,0.4-1.6,0.5-2.5c0.1-0.5,0.3-1.1,0.4-1.7c5.2,9.6,7.3,21,5.2,33c-3.7,21.4-21.1,38.4-42.6,41.6
				c-17.9,2.6-34.4-4.1-45.3-16c9.5,5.5,30.9,0,39.4-31.3c1.8-6.6,2.9-13.4,4.3-20.2c0.2-1,1-1.6,1.9-1.6H561c0.9,0,1.6,0.9,1.3,1.7
				c-1.6,5.9-6.5,24.9-7.2,29c-0.4,2.1-0.5,4.2-0.4,6.3c0.1,1,0.1,2,0.4,3c0.7,2.9,3.1,5,6.1,5.5c2.6,0.3,5.1-0.3,7.4-1.4
				c0.9-0.4,1.8-0.9,2.6-1.5c1.9-1.3,3.5-2.8,5.1-4.5c0.1-0.1,0.2-0.3,0.3-0.4c0.3-0.4,0.3-1-0.1-1.3c-0.7-0.7-1.5-1.4-2.2-2.2
				c-0.2,0.2-0.4,0.3-0.5,0.4c-1,1-2,1.9-3,2.8c-1,0.8-2.2,1.4-3.6,1.7c-0.1,0.1-0.1,0.1-0.2,0.1c-1.9,0.3-3.1-0.7-3.3-2.7
				c-0.1-2.2,0.1-4.6,0.6-6.8c2.1-9.5,4.2-19,6.3-28.5c0-0.1,0.1-0.3,0.1-0.4c0.1-0.7,0.6-1,1.2-1H583
				C583.7,460.6,584,460.3,584.2,459.6z"/>
			<path d="M540,367.5l-96.9,56v111.8l96.9,55.9l96.8-55.9V423.5L540,367.5z M624.8,528.4l-84.8,49l-84.9-49v-98l84.9-48.9
				l84.8,48.9V528.4z M461.5,434.1v90.6L540,570l78.4-45.3v-90.6L540,388.7L461.5,434.1z M596.4,479.3c0,31.2-25.3,56.5-56.4,56.5
				c-31.2,0-56.5-25.3-56.5-56.5c0-31.2,25.3-56.5,56.5-56.5C571.1,422.9,596.4,448.2,596.4,479.3z"/>
		</g>
	</g>
	<path d="M237.7,675.3v-5.8l-8,5.5c-1.1-2.9-3.3-4.8-7-4.8h-0.1c-4.6,0-7.4,3.2-7.4,8.5v10.3h22.5V684h-7.2v-3.9L237.7,675.3z
		 M219.6,684v-4.9c0-2.4,1.1-3.9,3.2-3.9h0.1c1.9,0,3.2,1.4,3.2,3.8v5H219.6z"/>
</g>
</svg>
