<?xml version="1.0" encoding="utf-8"?>
<!-- Generator: Adobe Illustrator 25.2.1, SVG Export Plug-In . SVG Version: 6.00 Build 0)  -->
<svg version="1.1" id="Capa_1" xmlns="http://www.w3.org/2000/svg" xmlns:xlink="http://www.w3.org/1999/xlink" x="0px" y="0px"
	 viewBox="0 0 1080 1080" style="enable-background:new 0 0 1080 1080;" xml:space="preserve">
<style type="text/css">
	.st0{fill:#FFFFFF;}
</style>
<rect x="0" width="1080" height="1080"/>
<g>
	<g>
		<g>
			<path class="st0" d="M800.9,536.9c0.8-1.9,1.7-3.8,2.9-5.4c0.7-0.9,1.4-1.6,2.3-2.3c0.8-0.5,1.5-0.8,2.4-1.1
				c0.1,0,0.3-0.1,0.4-0.1c0.4,0.1,0.7,0.3,0.8,0.7c0.1,0.4,0.1,0.8,0,1.1c-0.2,1.1-0.8,2.1-1.6,2.9c-0.6,0.5-1.1,1-1.8,1.4
				c-1.5,1.1-3.1,2.1-4.9,2.8C801.3,537,801.1,537.1,800.9,536.9z"/>
			<path class="st0" d="M800.8,541.1c-0.1-0.6-0.1-1.2-0.1-1.8v-0.7c0-0.4,0.1-0.6,0.6-0.7c0.8-0.1,1.5-0.3,2.2-0.4
				c2.3-0.6,4.3-1.8,6.1-3.4c0.7-0.6,1.3-1.3,1.6-2.1c0.5-1,0.7-2,0.6-3.1c-0.2-1.3-1.1-2.2-2.4-2.2c-1.4-0.1-2.8,0.3-4.1,1.1
				c-0.6,0.3-1.1,0.7-1.6,1.1c-1.8,1.4-3.2,3-4.3,5c-0.8,1.3-1.3,2.6-1.6,4c-0.1,0.7-0.2,1.4-0.1,2.1c-2.1-3.6-3.4-7.8-3.4-12.3
				c0-3.1,0.6-6.1,1.7-8.8h21.7c0.3,0,0.4,0.1,0.7,0.1c-0.1,0.4-0.1,0.8-0.3,1.3c-0.9,3.6-1.7,7.3-2.7,11c-0.4,1.4-0.9,2.8-1.4,4.1
				c-1.1,2.4-2.8,4.5-4.8,6.1c-1,0.8-2.1,1.4-3.4,1.7c-0.9,0.3-1.9,0.3-2.9,0.1C801.8,543,801,542.3,800.8,541.1z"/>
			<path class="st0" d="M839.7,515.1h-41.9c4.3-7.1,12-11.9,20.9-11.9C827.6,503.2,835.4,508.1,839.7,515.1z"/>
			<path class="st0" d="M839.3,518.7c0.3,0,0.5-0.1,0.6-0.4c0.1-0.4,0.1-0.8,0.3-1.2c0.1-0.3,0.1-0.6,0.2-0.8
				c2.4,4.6,3.5,10,2.5,15.7c-1.8,10.2-10.1,18.3-20.3,19.9c-8.6,1.3-16.4-1.9-21.7-7.6c4.6,2.6,14.8-0.1,18.8-15
				c0.9-3.2,1.4-6.5,2.1-9.7c0.1-0.4,0.5-0.8,0.9-0.8h6.2c0.4,0,0.7,0.4,0.6,0.8c-0.8,2.8-3.1,11.9-3.4,13.9c-0.2,1-0.3,1.9-0.2,2.9
				c0,0.5,0.1,1,0.2,1.4c0.3,1.4,1.4,2.4,2.9,2.6c1.3,0.2,2.4-0.1,3.6-0.6c0.4-0.2,0.8-0.4,1.2-0.7c0.9-0.6,1.7-1.4,2.4-2.2
				c0.1-0.1,0.1-0.1,0.2-0.2c0.1-0.2,0.1-0.4-0.1-0.6c-0.4-0.4-0.7-0.7-1.1-1.1l-0.3,0.3c-0.5,0.4-0.9,0.9-1.4,1.3
				c-0.5,0.4-1.1,0.7-1.7,0.8c-0.1,0-0.1,0-0.1,0c-0.9,0.2-1.5-0.3-1.6-1.3c-0.1-1.1,0.1-2.2,0.3-3.3c1.1-4.5,2-9,3-13.6
				c0-0.1,0.1-0.1,0.1-0.2c0.1-0.3,0.3-0.4,0.6-0.5h0.7c1.4,0,2.9,0,4.4,0.1C839.2,518.8,839.2,518.8,839.3,518.7z"/>
			<path class="st0" d="M818.7,484.4L781.3,506v43.3l37.5,21.6l37.5-21.6V506L818.7,484.4z M818.7,554.7c-14.9,0-27-12.1-27-27
				c0-14.9,12.1-27,27-27c14.9,0,27,12.1,27,27C845.7,542.6,833.6,554.7,818.7,554.7z"/>
			<path class="st0" d="M818.7,474.3L772.5,501v53.4l46.3,26.7l46.3-26.7V501L818.7,474.3z M859.3,551.1l-40.6,23.4l-40.5-23.4
				v-46.8l40.5-23.4l40.6,23.4V551.1z"/>
		</g>
		<g>
			<g>
				<path class="st0" d="M224.4,592.9c-0.8-1.4-2-2.5-4.2-2.5h-0.1c-3,0-5,2.4-5,6.4v9h19.4v-9.2c0-4.4-1.8-7.3-5.3-7.3h-0.1
					C226.5,589.2,225.2,590.6,224.4,592.9z M218.9,601.6v-4.2c0-1.8,0.7-2.8,2-2.8h0.1c1.4,0,2,1.2,2,3.1v3.9H218.9z M228.7,593.5
					c1.4,0,2.1,1.1,2.1,3v5.1h-4.3v-4.9C226.5,594.5,227.3,593.5,228.7,593.5L228.7,593.5z"/>
				<path class="st0" d="M215,554.2v3.9l19.5,8.3v-4.3l-4.4-1.8v-8.2l4.4-1.8v-4.4L215,554.2z M226.4,558.8l-6.3-2.6l6.3-2.6V558.8z
					"/>
				<path class="st0" d="M215.1,535.5v7.6h19.4v-7.6c0-6.1-4.2-10.3-9.7-10.3h-0.1C219.3,525.2,215.1,529.4,215.1,535.5z
					 M224.9,529.6c3.4,0,5.8,2.4,5.8,5.8v3.3H219v-3.3C219,532,221.4,529.6,224.9,529.6L224.9,529.6z"/>
			</g>
			<g>
				<path class="st0" d="M307.1,580.8c-6.1,5.6-11.5,9.1-20.4,9.1c-13.4,0-22.6-11.2-22.6-24.5v-0.2c0-13.3,9.4-24.3,22.6-24.3
					c7.8,0,13.9,3.3,19.9,8.8l10.9-12.6c-7.2-7.1-16.1-12-30.7-12c-24,0-40.6,18.2-40.6,40.3v0.2c0,22.4,17,40,40,40
					c15,0,23.9-5.4,31.9-13.9L307.1,580.8z"/>
				<path class="st0" d="M370.5,525.9h-15.8l-33.3,78.5h17.5l7.1-17.5h32.9l7.2,17.5h17.9L370.5,525.9z M352.1,571.8l10.3-25.2
					l10.3,25.2H352.1z"/>
				<path class="st0" d="M464.3,526.5v48l-36.5-48H412v77.9h16.9v-49.5l37.7,49.5h14.6v-77.9H464.3z"/>
				<path class="st0" d="M497.4,526.5v77.9h14.6l37.7-49.5v49.5h16.9v-77.9h-15.8l-36.5,48v-48H497.4z"/>
				<path class="st0" d="M599.7,589.1v-16.3h36.7v-15.2h-36.7v-15.8h41.7v-15.2h-58.8v77.9h59.3v-15.3H599.7z"/>
				<path class="st0" d="M672.2,588.8v-62.3h-17.2v77.9H711v-15.6H672.2z"/>
				<path class="st0" d="M736.6,588.8v-62.3h-17.1v77.9h55.9v-15.6H736.6z"/>
			</g>
		</g>
	</g>
	<path class="st0" d="M234.5,573.7v-5l-6.9,4.7c-0.9-2.5-2.9-4.2-6-4.2h-0.1c-4,0-6.4,2.8-6.4,7.3v8.9h19.4v-4.3h-6.2v-3.3
		L234.5,573.7z M219,581.2v-4.2c0-2.1,0.9-3.3,2.8-3.3h0.1c1.6,0,2.7,1.2,2.7,3.3v4.3H219z"/>
</g>
</svg>
