<?xml version="1.0" standalone="no"?>
<!DOCTYPE svg PUBLIC "-//W3C//DTD SVG 1.1//EN" "http://www.w3.org/Graphics/SVG/1.1/DTD/svg11.dtd">
<svg xmlns="http://www.w3.org/2000/svg" xmlns:xlink="http://www.w3.org/1999/xlink" version="1.1" id="Layer_1" x="0px" y="0px" viewBox="0 0 198 198" style="enable-background:new 0 0 198 198;" xml:space="preserve" width="198" height="198">
<style type="text/css">
	.st0{fill:#B96645;}
</style>
<g>
	<g>
		<polygon class="st0" points="83.67,111.03 83.67,86.9 66.7,86.9 66.68,111.02   "/>
		<polygon class="st0" points="111.07,90.58 86.93,90.58 86.93,107.43 111.04,107.45   "/>
		<polygon class="st0" points="131.33,111.03 131.33,86.9 114.35,86.9 114.34,111.02   "/>
		<path class="st0" d="M107.54,39.83c0-4.72-3.8-8.83-8.52-8.83c-4.73,0-8.56,4.18-8.56,8.9l0.01,47.34h17.04L107.54,39.83"/>
		<path class="st0" d="M107.54,158.15c0,4.73-3.8,8.85-8.52,8.85c-4.73,0-8.56-4.2-8.56-8.92l0.01-47.34h17.04L107.54,158.15"/>
		<path class="st0" d="M83.76,39.83c0-4.72-3.8-8.83-8.52-8.83c-4.73,0-8.56,4.18-8.56,8.9v23.5h17.04L83.76,39.83"/>
		<path class="st0" d="M131.34,39.83c0-4.72-3.8-8.83-8.52-8.83c-4.73,0-8.56,4.18-8.56,8.9l0.01,23.5h17.04L131.34,39.83"/>
		<path class="st0" d="M83.76,158c0,4.72-3.8,8.83-8.52,8.83c-4.73,0-8.56-4.2-8.56-8.92v-23.43h17.04L83.76,158"/>
		<path class="st0" d="M131.34,158c0,4.72-3.8,8.83-8.52,8.83c-4.73,0-8.56-4.2-8.56-8.92l0.01-23.43h17.04L131.34,158"/>
		<path class="st0" d="M40.36,83.71h46.9V66.65H86.5L40.3,66.64c-4.75,0-8.67,3.8-8.67,8.52c0,4.69,3.77,8.5,8.46,8.56l0,0l0,0    C40.13,83.69,40.34,83.71,40.36,83.71C40.39,83.71,40.32,83.71,40.36,83.71z"/>
		<path class="st0" d="M40.36,131.36h46.9v-17.06H86.5l-46.21-0.01c-4.75,0-8.67,3.8-8.67,8.53c0,4.69,3.77,8.49,8.46,8.56l0,0l0,0    C40.13,131.35,40.34,131.36,40.36,131.36C40.39,131.36,40.32,131.36,40.36,131.36z"/>
		<path class="st0" d="M157.62,131.36h-46.9v-17.06h0.76l46.21-0.01c4.73,0,8.67,3.8,8.67,8.53c0,4.69-3.77,8.49-8.45,8.56l0,0    h-0.01C157.86,131.35,157.65,131.36,157.62,131.36C157.59,131.36,157.65,131.36,157.62,131.36z"/>
		<path class="st0" d="M40.36,107.53h23.09V90.47H62.7l-22.4-0.01c-4.75,0-8.67,3.8-8.67,8.52c0,4.69,3.77,8.49,8.46,8.54l0,0l0,0    C40.13,107.52,40.34,107.53,40.36,107.53C40.39,107.53,40.32,107.53,40.36,107.53z"/>
		<path class="st0" d="M157.64,107.53h-23.09V90.47h0.76l22.4-0.01c4.73,0,8.67,3.8,8.67,8.52c0,4.69-3.77,8.49-8.45,8.54l0,0l0,0    C157.86,107.52,157.65,107.53,157.64,107.53C157.59,107.53,157.66,107.53,157.64,107.53z"/>
		<path class="st0" d="M157.62,83.71h-46.9V66.65h0.76l46.21-0.01c4.73,0,8.67,3.8,8.67,8.52c0,4.69-3.77,8.5-8.45,8.56l0,0h-0.01    C157.86,83.69,157.65,83.71,157.62,83.71C157.59,83.71,157.65,83.71,157.62,83.71z"/>
	</g>
</g>
</svg>