<?xml version="1.0" standalone="no"?>
<!DOCTYPE svg PUBLIC "-//W3C//DTD SVG 1.1//EN" "http://www.w3.org/Graphics/SVG/1.1/DTD/svg11.dtd">
<svg xmlns="http://www.w3.org/2000/svg" id="Layer_1" data-name="Layer 1" viewBox="0 0 646.97 495.57" width="646.969970703125" height="495.57000732421875"><defs><style>.cls-1{fill:#b96645;}.cls-2{fill:#78787a;}</style></defs><title>UTH-SPH-Standard-SchoolBelow-Orange Gray-RGB</title><path class="cls-1" d="M126.55,395a2.57,2.57,0,0,0-.9-2.21A3.9,3.9,0,0,0,123,392c-1.59,0-3,1-3,2.27,0,1.83,2.21,2.42,4,2.9,4.17,1.07,10.24,1.48,10.24,8.21,0,5.24-5.17,7.73-10.93,7.73s-10.9-1.69-11-8.45h6.9c0,2.34,1.69,3.62,4.18,3.62,1.58,0,3.62-.83,3.62-2.48,0-3.39-5.11-2.66-10.52-5a6.26,6.26,0,0,1-3.76-6.07c.27-5.9,5.45-7.52,10.66-7.52s10.41,1.83,10,7.83Z"/><path class="cls-1" d="M148.91,401.38a3.24,3.24,0,0,0-.52-2,2.43,2.43,0,0,0-2-.76c-2.38,0-2.52,3.59-2.52,5.38s.14,5.38,2.52,5.38c2.27-.17,2.55-1.93,2.55-3.48h6.55a6.51,6.51,0,0,1-2.69,5.45,11.31,11.31,0,0,1-6.14,1.83c-6.55,0-9.52-3.18-9.52-9.18,0-6.28,4.31-9.17,9.52-9.17,4.38-.07,8.52,1.65,8.83,6.59Z"/><path class="cls-1" d="M159,412.62v-24.9h6.56v9.48a6.61,6.61,0,0,1,5.41-2.41c3.73,0,6.49,2.41,6.49,6.24v11.59h-6.56V402.44c-.07-1.69-.48-3.51-2.52-3.51-3.24,0-2.82,3.55-2.82,3.76v9.93Z"/><path class="cls-1" d="M201.08,404c0,6.38-4.65,9.18-10.07,9.18s-10.07-2.8-10.07-9.18,4.65-9.17,10.07-9.17S201.08,397.58,201.08,404ZM191,409.34c2.76,0,3.35-2.93,3.35-5.38s-.59-5.38-3.35-5.38-3.35,2.93-3.35,5.38S188.25,409.34,191,409.34Z"/><path class="cls-1" d="M223.94,404c0,6.38-4.66,9.18-10.08,9.18s-10.07-2.8-10.07-9.18,4.66-9.17,10.07-9.17S223.94,397.58,223.94,404Zm-10.08,5.38c2.76,0,3.35-2.93,3.35-5.38s-.59-5.38-3.35-5.38-3.34,2.93-3.34,5.38S211.1,409.34,213.86,409.34Z"/><path class="cls-1" d="M227.61,412.62v-24.9h6.56v24.9Z"/><path class="cls-1" d="M268.31,404c0,6.38-4.66,9.18-10.07,9.18s-10.07-2.8-10.07-9.18,4.65-9.17,10.07-9.17S268.31,397.58,268.31,404Zm-10.07,5.38c2.76,0,3.34-2.93,3.34-5.38s-.58-5.38-3.34-5.38-3.35,2.93-3.35,5.38S255.48,409.34,258.24,409.34Z"/><path class="cls-1" d="M273.5,412.62V399.44h-3.24V395.3h3.31c-.2-5.79,1.31-8,7.21-8a16.84,16.84,0,0,1,3.52.42v4.1a7,7,0,0,0-1.83-.38c-2.2,0-2.48,1.93-2.41,3.86h4v4.14h-4v13.18Z"/><path class="cls-1" d="M296.65,412.62v-24.9H308.1c6.1,0,10.11,2,10.11,8s-4,8-10.11,8h-4.56v8.9Zm10.45-13.73c2.72-.1,3.86-1.34,3.86-3.17s-1.14-3.07-3.86-3.18h-3.56v6.35Z"/><path class="cls-1" d="M332.94,410.72a6.61,6.61,0,0,1-5.42,2.42c-3.72,0-6.48-2.42-6.48-6.25V395.3h6.55v10.18c.07,1.69.49,3.52,2.52,3.52,3.24,0,2.83-3.55,2.83-3.76V395.3h6.55v12.87a42.53,42.53,0,0,0,.21,4.45H333Z"/><path class="cls-1" d="M343.84,387.72h6.55v9.41h.07a6.77,6.77,0,0,1,5.28-2.34c5.31,0,7.69,4,7.69,8.9,0,5.27-2.35,9.45-8.07,9.45-2,0-4.38-1.31-4.83-3.07h-.14l-.17,2.55h-6.38Zm6.55,16.48c0,1.94.59,5.14,3,5.14,2.86,0,3.34-3.2,3.34-5.45s-.31-5.31-3.1-5.31C350.63,398.58,350.39,401.89,350.39,404.2Z"/><path class="cls-1" d="M367.23,412.62v-24.9h6.55v24.9Z"/><path class="cls-1" d="M378.35,392.34v-4.62H385v4.62Zm0,20.28V395.3h6.56v17.32Z"/><path class="cls-1" d="M400.39,401.38a3.3,3.3,0,0,0-.51-2,2.45,2.45,0,0,0-2-.76c-2.38,0-2.52,3.59-2.52,5.38s.14,5.38,2.52,5.38c2.28-.17,2.55-1.93,2.55-3.48H407a6.51,6.51,0,0,1-2.69,5.45,11.36,11.36,0,0,1-6.14,1.83c-6.56,0-9.52-3.18-9.52-9.18,0-6.28,4.31-9.17,9.52-9.17,4.38-.07,8.52,1.65,8.83,6.59Z"/><path class="cls-1" d="M420.6,412.62v-24.9h6.93v9.86H436v-9.86h6.9v24.9H436V402.41H427.5v10.21Z"/><path class="cls-1" d="M452.76,405.27c0,2.25.55,4.18,3,4.18,1.83,0,3-.87,3.21-2.49H465a6.26,6.26,0,0,1-3.28,4.83,10.18,10.18,0,0,1-5.49,1.35c-6.93,0-9.69-3-9.69-9.76,0-5.49,4.11-8.59,9.32-8.59,7,0,9.27,4,9.27,10.48Zm6.21-3.52a4.46,4.46,0,0,0-.8-2.58,2.45,2.45,0,0,0-2.27-1.11c-2.28.11-2.83,1.73-3,3.69Z"/><path class="cls-1" d="M479.5,412.62a9.68,9.68,0,0,1-.14-2.34h-.07a6,6,0,0,1-5.52,2.86c-4.1,0-6.24-2.21-6.17-5.76.07-4.21,3.93-5.94,9.59-5.94h2.07c0-1.51.34-3.72-2.28-3.62a2.38,2.38,0,0,0-2.07,2.66h-6.17a4.69,4.69,0,0,1,3-4.66,14.66,14.66,0,0,1,6-1c3.52,0,7.76,1.48,7.69,5.38v8.9c0,.72.14,1.48.38,3.55Zm-3.31-3.28c2.83,0,3.07-2.65,3.07-5a8.75,8.75,0,0,0-3.59.38,2.52,2.52,0,0,0-1.72,2.31A2.26,2.26,0,0,0,476.19,409.34Z"/><path class="cls-1" d="M489.86,412.62v-24.9h6.56v24.9Z"/><path class="cls-1" d="M502.61,395.3v-2.62l6.55-2.48v5.1H513v4.14h-3.8v6.87c0,.45-.27,2.69,1.24,2.69a20.33,20.33,0,0,0,2.52-.1v3.89a18.09,18.09,0,0,1-3.52.35c-4.44,0-7.14-.62-6.79-5.93v-7.77h-3.38V395.3Z"/><path class="cls-1" d="M516.45,412.62v-24.9H523v9.48a6.63,6.63,0,0,1,5.42-2.41c3.72,0,6.48,2.41,6.48,6.24v11.59h-6.55V402.44c-.07-1.69-.49-3.51-2.52-3.51-3.24,0-2.83,3.55-2.83,3.76v9.93Z"/><path class="cls-1" d="M386.88,90.21c0-.14,0-.28,0-.43a6.17,6.17,0,0,0-12.33,0c0,.13,0,.25,0,.37h0V107h12.28Z"/><polygon class="cls-1" points="386.88 141 386.88 123.9 374.64 123.9 374.64 141 374.6 141 374.6 141.29 386.88 141.29 386.88 141"/><path class="cls-1" d="M374.6,175s0,.07,0,.1a6.17,6.17,0,1,0,12.33,0c0-.15,0-.28,0-.43V158.26H374.6Z"/><path class="cls-1" d="M391.81,122.65h0v1.5h12.27V121.6h0V109.32h0V90.24c0-.15.05-.3.05-.46a6.17,6.17,0,0,0-12.34,0c0,.13,0,.25,0,.37h0V105.4h0Z"/><path class="cls-1" d="M404,141H391.81v18.34h0V175s0,.05,0,.07a6.17,6.17,0,1,0,12.34,0c0-.16,0-.31-.05-.45V160.44h0Z"/><path class="cls-1" d="M408.94,143.67h-2.55v12.25h17.49v0h16.53a6.17,6.17,0,0,0-.09-12.33c-.15,0-.31,0-.45,0H421.23v0H408.94Z"/><path class="cls-1" d="M408.94,175v.07a6.17,6.17,0,1,0,12.33,0c0-.15,0-.28,0-.43V158.26H408.94Z"/><polygon class="cls-1" points="421.22 141 421.22 123.9 408.99 123.9 408.99 141 408.94 141 408.94 141.29 421.23 141.29 421.23 141 421.22 141"/><path class="cls-1" d="M421.23,90.21c0-.14,0-.28,0-.43a6.17,6.17,0,0,0-12.33,0c0,.13,0,.25,0,.37h0V107h12.29Z"/><path class="cls-1" d="M389.46,155.92V143.67h-2.58v0H374.6v0H356c-.14,0-.28,0-.43,0a6.17,6.17,0,0,0,0,12.34h16.13v0Z"/><polygon class="cls-1" points="389.22 138.78 389.38 138.78 389.38 138.65 406.64 138.65 406.64 126.5 389.38 126.5 389.38 126.49 389.22 126.49 389.22 138.78"/><path class="cls-1" d="M356,126.49c-.14,0-.29,0-.44,0a6.16,6.16,0,0,0-.07,12.32H372.3V126.49Z"/><path class="cls-1" d="M440.25,138.77h.16a6.16,6.16,0,0,0-.09-12.32c-.16,0-.32,0-.45,0H423.56v12.28Z"/><path class="cls-1" d="M406.64,121.6v0h17.24v0h16.53a6.16,6.16,0,0,0-.09-12.32c-.15,0-.31,0-.45,0H406.4V121.6Z"/><path class="cls-1" d="M388.44,121.55v0h1V109.32H356c-.14,0-.28,0-.43,0a6.17,6.17,0,0,0-.07,12.33H371.2v0Z"/><path class="cls-2" d="M559.16,249.65l-3.33-.36c-4.43-.5-4.68-1.85-4.68-10.73V218c0-8.62-4.19-15.9-15.89-15.9-6.28,0-12.2,3-16.64,6.41-.36-.25-.49-1.24-.49-2.34V180.27c0-5.41.25-11.57.37-15.27a1.35,1.35,0,0,0-1.24-.75,85.36,85.36,0,0,1-13.3,5.18,1.87,1.87,0,0,0,0,2.47l1.23.74c3.7,2.22,3.82,3,3.82,10.22v55.7a52.29,52.29,0,0,1-.26,7c-1.37,3.63-5,3.33-7.61,3.29-11.05-.15-12.42-6.53-12.42-13.67V212.1c0-2.59.12-2.95,2.22-2.95h9.3c1.11-.75,1.36-4.08-.13-5.19h-9.05c-2.09,0-2.22-.12-2.22-2.34V191.43c-.49-.87-2.49-.46-2.9,0-1.5,2.85-2.58,8.49-5.06,11.25-1,1.13-4,2.6-7.58,3.71-.49.74-.48,2.28.27,2.78H477c2.46,0,2.58.24,2.58,3.56v28.22c.11,4.47,4.6,11.37,15.41,11.74,0,0,0,0,0,0h1.27l.53,0c5.21-.06,12.78-.07,16.73-.07,4.32,0,7.89.11,11.59.36.85-.37,1.1-2.82.25-3.32l-2.59-.36c-4.44-.62-4.69-1.85-4.69-10.73V217.87c0-4.32.37-4.94,2.59-6.78a14.76,14.76,0,0,1,9.61-3.33c7.88,0,11.7,5.29,11.7,13.18v17.62c0,8.88-.12,10-4.68,10.73l-2.46.36c-.86.62-.62,2.95.24,3.32,3.34-.25,7-.36,11.47-.36s7.88.12,12.32.36C559.78,252.6,560,250.27,559.16,249.65Z"/><path class="cls-2" d="M470.76,249.77l-2.93-.37c-4.4-.6-4.64-1.83-4.64-10.61v-57.7c0-5.37.24-11.47.36-15.14a1.32,1.32,0,0,0-1.21-.73,86,86,0,0,1-13.18,5.12,1.86,1.86,0,0,0,0,2.44l1.22.74c3.66,2.2,3.78,2.93,3.78,10.12v55.15c0,8.78-2,10.05-4.63,10.61a19.24,19.24,0,0,1-2.36.3,27.65,27.65,0,0,1-5.91-.28c-7.29-1.06-8-5.24-8-11.24L434,217c.36-9.16-3.91-14.29-12.68-14.29-8.92,0-22.7,8.67-22.7,15a1.54,1.54,0,0,0,1.71,1.7,13.09,13.09,0,0,0,6.95-2.32c1-.73,1.1-2.2,1.21-4.15.25-3.77,4.39-5.49,7.82-5.49,7.56,0,9,6.11,8.9,10.62l-.08,4.52c-.13,1.84-.85,2.9-2.14,3.36a129,129,0,0,0-14.38,5.12c-7.54,3.28-10.24,7-10.24,11.77a11.39,11.39,0,0,0,3.78,8.53,12.6,12.6,0,0,0,8.54,2.81c3.42,0,6.1-1.58,8.79-3,2.44-1.34,3.9-2.44,4.76-2.44s1.4,1,2.24,1.66c2.45,2.21,5,2.47,7.59,2.45,5.31,0,10.64,0,12.71,0h0l11.86-.17c4.29,0,11.84.36,11.84.36C471.36,252.61,471.61,250.38,470.76,249.77Zm-46.24-9.88c0,2.56-.12,4.27-1.58,5.73a13.82,13.82,0,0,1-7.45,3,7.3,7.3,0,0,1-7.68-7.32c.2-6.28,3.5-7.44,10.63-10.13a18.12,18.12,0,0,1,5.15-1.25c.74,0,1.17.86,1.17,2.21Z"/><path class="cls-2" d="M157.61,202.26c0-7.63-.25-21.79-2.34-25.48-.86-1.48-3.07-2.34-6.15-2.59L146,174a2.23,2.23,0,0,1,.24-2.95c4.68.24,9.24.36,14,.36,5.17,0,8.49-.12,12.92-.36a2.11,2.11,0,0,1,.25,2.95l-3,.24c-3.07.25-5.41,1.35-6.15,3-1.72,4.06-1.72,18.22-1.72,25.11v13.91c0,10.71-1.72,22-8.62,29.42-5.29,5.78-14.4,9-23.51,9-8.49,0-17-1.59-23-6.76-6.52-5.42-9.6-14.41-9.6-29.06V189.7c0-12.79-.25-14.89-7.39-15.51L87.45,174c-.74-.49-.5-2.59.24-2.95,6.16.24,10.34.36,15.26.36s9.12-.12,15.15-.36c.74.36,1,2.46.25,2.95l-3,.24c-7.14.62-7.39,2.72-7.39,15.51v26.59c0,19.82,6.16,32.87,25,32.87,17.85,0,24.62-14,24.62-32.75Z"/><path class="cls-2" d="M218.64,234.14c0,12.93.24,14.78,7.38,15.39l3.94.37c.74.49.49,2.71-.25,3.08-7-.25-11.2-.37-16.12-.37s-9.23.12-17.12.37c-.73-.37-1-2.47,0-3.08l4.44-.37c7-.61,7.63-2.46,7.63-15.39v-55c0-3.82,0-3.94-3.69-3.94h-6.77c-5.29,0-12.07.24-15.14,3.08s-4.19,5.41-5.54,8.49a2.37,2.37,0,0,1-3.2-.86,129.41,129.41,0,0,0,4.67-18.34,3.13,3.13,0,0,1,2.35,0c.73,3.94,4.79,3.81,10.45,3.81h49.86c6.65,0,7.76-.24,9.6-3.44.62-.25,2-.13,2.22.37-1.36,5-2.22,15-1.85,18.71-.49,1-2.58,1-3.2.24-.37-3.08-1.24-7.63-3.08-9-2.83-2.09-7.51-3.08-14.28-3.08H222.2c-3.69,0-3.56.12-3.56,4.18Z"/><path class="cls-2" d="M284.14,212.85c-5.91,0-6.16.24-6.16,3.93v17.36c0,12.93.62,14.65,7.51,15.39l3.57.37c.74.49.5,2.71-.25,3.08-6.64-.25-10.83-.37-15.63-.37-5.29,0-9.47.24-14.27.37-.74-.37-1-2.35-.25-3.08l2.09-.37c6.89-1.23,7.14-2.46,7.14-15.39V189.82c0-12.91-.86-15-7.26-15.5l-3.21-.25c-.73-.49-.49-2.71.25-3.07,6,.12,10.22.36,15.51.36,4.8,0,9-.12,14.28-.36.74.36,1,2.58.25,3.07l-2.34.25c-7.14.74-7.39,2.59-7.39,15.5V204c0,3.81.25,3.93,6.16,3.93h35.2c5.91,0,6.16-.12,6.16-3.93V189.82c0-12.91-.25-14.76-7.51-15.5l-2.34-.25c-.74-.49-.49-2.71.25-3.07,5.66.24,9.85.36,14.89.36,4.81,0,9-.12,14.52-.36.75.36,1,2.58.26,3.07l-2.6.25c-7.13.74-7.37,2.59-7.37,15.5v44.32c0,12.93.24,14.53,7.37,15.39l3,.37c.73.49.49,2.71-.25,3.08-5.91-.25-10.09-.37-14.9-.37-5,0-9.48.12-14.89.37-.74-.37-1-2.35-.25-3.08l2.34-.37c7.51-1.23,7.51-2.46,7.51-15.39V216.78c0-3.69-.25-3.93-6.16-3.93Z"/><path class="cls-2" d="M359.2,221.09c-3.21,0-3.34.25-3.34,3.33,0,12.43,7.27,23,20.44,23,4.06,0,7.51-1.23,11.33-6a1.63,1.63,0,0,1,2.21,1.48c-4.06,8.36-12.92,11.45-19.32,11.45-8,0-14.29-3.45-17.85-8.13a26.13,26.13,0,0,1-5.17-16c0-15.15,10-27.83,24.74-27.83,10.59,0,17.48,7.27,17.48,14.65a7.73,7.73,0,0,1-.49,3.2c-.37.74-2.1.86-7.27.86Zm7.62-3.69c9.11,0,11.82-.49,12.81-1.23.36-.25.73-.73.73-2.34,0-3.44-2.33-7.75-9.47-7.75s-13.54,6.64-13.67,10.7c0,.25,0,.62.87.62Z"/><path class="cls-2" d="M109.16,294.58H101v-5.15h23.83v5.15h-8.33V316h-7.36Z"/><path class="cls-2" d="M127.87,316V289.43h7v10.12a7,7,0,0,1,5.78-2.57c4,0,6.92,2.57,6.92,6.66V316h-7V305.15c-.08-1.8-.52-3.76-2.69-3.76-3.46,0-3,3.8-3,4V316Z"/><path class="cls-2" d="M158.13,308.17c0,2.39.59,4.46,3.21,4.46,1.95,0,3.16-.92,3.42-2.66h6.48a6.69,6.69,0,0,1-3.5,5.16,10.89,10.89,0,0,1-5.85,1.44c-7.4,0-10.35-3.17-10.35-10.43,0-5.85,4.38-9.16,9.94-9.16,7.52,0,9.91,4.3,9.91,11.19Zm6.63-3.76a4.77,4.77,0,0,0-.85-2.76,2.66,2.66,0,0,0-2.43-1.18c-2.43.11-3,1.85-3.2,3.94Z"/><path class="cls-2" d="M212,289.43v16.83c-.07,7.4-6,10.31-12.7,10.31s-12.63-2.91-12.71-10.31V289.43H194v16.46c.11,3.39,1.88,5.52,5.34,5.52s5.23-2.13,5.34-5.52V289.43Z"/><path class="cls-2" d="M224,299.55A7,7,0,0,1,229.8,297c4,0,6.92,2.57,6.92,6.66V316h-7V305.15c-.08-1.8-.52-3.76-2.69-3.76-3.46,0-3,3.8-3,4V316h-7V302.28a43.09,43.09,0,0,0-.22-4.75h7.11Z"/><path class="cls-2" d="M241.74,294.36v-4.93h7.07v4.93Zm0,21.65V297.53h7V316Z"/><path class="cls-2" d="M258.91,316l-7-18.48h7.44l3.64,13H263l3.9-13h6.52l-7,18.48Z"/><path class="cls-2" d="M281.35,308.17c0,2.39.59,4.46,3.2,4.46,2,0,3.17-.92,3.43-2.66h6.48a6.69,6.69,0,0,1-3.5,5.16,10.89,10.89,0,0,1-5.85,1.44c-7.4,0-10.35-3.17-10.35-10.43,0-5.85,4.38-9.16,9.94-9.16,7.51,0,9.91,4.3,9.91,11.19Zm6.63-3.76a4.84,4.84,0,0,0-.85-2.76,2.66,2.66,0,0,0-2.43-1.18c-2.43.11-3,1.85-3.2,3.94Z"/><path class="cls-2" d="M305.63,301h.07c.81-3.06,3.09-4.09,6.19-4v5.92c-.52,0-1,0-1.48,0-3.64,0-4.89,2.21-4.78,5.74V316h-7V302.28a45.71,45.71,0,0,0-.22-4.75h7.11Z"/><path class="cls-2" d="M325.25,303.24a2.29,2.29,0,0,0-.44-1.55,2.43,2.43,0,0,0-1.92-.66,1.51,1.51,0,0,0-1.66,1.65c0,1.37,2.84,1.29,7.22,2.65a4.78,4.78,0,0,1,3.72,5.09c0,4.89-4.6,6.15-8.84,6.15-4.53,0-8.94-.93-8.91-6.56h6.63a2,2,0,0,0,.48,1.66,2.21,2.21,0,0,0,1.66.85c1.36,0,2.35-.52,2.35-1.7,0-3.28-10.93-1.32-10.93-8,0-4.56,4.86-5.81,8.54-5.81,4.38,0,8.43,1.14,8.73,6.26Z"/><path class="cls-2" d="M336.32,294.36v-4.93h7.07v4.93Zm0,21.65V297.53h7V316Z"/><path class="cls-2" d="M350.08,297.53v-2.8l7-2.65v5.45h4.05V302h-4.05v7.33c0,.47-.3,2.87,1.32,2.87a21,21,0,0,0,2.69-.11v4.16a20,20,0,0,1-3.75.37c-4.75,0-7.63-.67-7.26-6.34V302h-3.61v-4.42Z"/><path class="cls-2" d="M385.11,297.53l-10.06,25.55h-6.44l2.61-6.51-7.73-19H371l3.64,12.85h.08l4-12.85Z"/><path class="cls-2" d="M419,306.77c0,6.81-5,9.8-10.75,9.8s-10.75-3-10.75-9.8,5-9.79,10.75-9.79S419,300,419,306.77Zm-10.75,5.75c2.94,0,3.57-3.13,3.57-5.75s-.63-5.74-3.57-5.74-3.57,3.13-3.57,5.74S405.28,312.52,408.23,312.52Z"/><path class="cls-2" d="M424.77,316V302h-3.46v-4.42h3.54c-.22-6.19,1.4-8.54,7.7-8.54a18.45,18.45,0,0,1,3.75.44v4.38a7.55,7.55,0,0,0-1.95-.41c-2.36,0-2.65,2.07-2.58,4.13h4.31V302h-4.31V316Z"/><path class="cls-2" d="M454.42,294.58h-8.14v-5.15H470.1v5.15h-8.32V316h-7.36Z"/><path class="cls-2" d="M475.33,308.17c0,2.39.59,4.46,3.2,4.46,2,0,3.17-.92,3.43-2.66h6.48a6.69,6.69,0,0,1-3.5,5.16,10.9,10.9,0,0,1-5.86,1.44c-7.4,0-10.34-3.17-10.34-10.43,0-5.85,4.38-9.16,9.94-9.16,7.51,0,9.9,4.3,9.9,11.19Zm6.63-3.76a4.84,4.84,0,0,0-.85-2.76,2.66,2.66,0,0,0-2.43-1.18c-2.43.11-3,1.85-3.2,3.94Z"/><path class="cls-2" d="M497.17,316H490l6.22-9.64-5.48-8.84h8.06l2.36,5.67,2.47-5.67h7.07l-5.68,8.84,6.26,9.64h-8.17l-2.91-6.85Z"/><path class="cls-2" d="M525.64,316a10.3,10.3,0,0,1-.15-2.5h-.07a6.41,6.41,0,0,1-5.89,3.06c-4.38,0-6.67-2.36-6.59-6.15.07-4.5,4.19-6.34,10.23-6.34h2.21c0-1.62.37-4-2.43-3.86-1.69.07-2.24,1.73-2.21,2.83h-6.59a5,5,0,0,1,3.2-5,15.82,15.82,0,0,1,6.38-1.1c3.75,0,8.28,1.58,8.21,5.74v9.5c0,.77.14,1.58.4,3.79Zm-3.53-3.49c3,0,3.27-2.84,3.27-5.31a9.33,9.33,0,0,0-3.83.41,2.69,2.69,0,0,0-1.84,2.46A2.43,2.43,0,0,0,522.11,312.52Z"/><path class="cls-2" d="M546.74,303.24a2.29,2.29,0,0,0-.44-1.55,2.43,2.43,0,0,0-1.92-.66,1.51,1.51,0,0,0-1.66,1.65c0,1.37,2.84,1.29,7.22,2.65a4.78,4.78,0,0,1,3.72,5.09c0,4.89-4.6,6.15-8.84,6.15-4.53,0-8.94-.93-8.91-6.56h6.63a2,2,0,0,0,.48,1.66,2.21,2.21,0,0,0,1.66.85c1.36,0,2.35-.52,2.35-1.7,0-3.28-10.93-1.32-10.93-8,0-4.56,4.86-5.81,8.54-5.81,4.38,0,8.43,1.14,8.73,6.26Z"/><path class="cls-2" d="M103.49,352.21V334.09h5v7.18h6.15v-7.18h5v18.12h-5v-7.43H108.5v7.43Z"/><path class="cls-2" d="M127.08,346.86c0,1.63.4,3,2.18,3a2.07,2.07,0,0,0,2.33-1.81H136a4.57,4.57,0,0,1-2.38,3.51,7.37,7.37,0,0,1-4,1c-5,0-7-2.15-7-7.1,0-4,3-6.24,6.77-6.24,5.12,0,6.75,2.93,6.75,7.62Zm4.51-2.56a3.33,3.33,0,0,0-.57-1.88,1.8,1.8,0,0,0-1.66-.8c-1.65.07-2.06,1.25-2.18,2.68Z"/><path class="cls-2" d="M146.74,352.21a7.3,7.3,0,0,1-.1-1.71h0a4.39,4.39,0,0,1-4,2.08c-3,0-4.54-1.6-4.49-4.19,0-3.06,2.86-4.31,7-4.31h1.5c0-1.11.25-2.71-1.65-2.64a1.72,1.72,0,0,0-1.51,1.93h-4.49a3.4,3.4,0,0,1,2.18-3.38,10.77,10.77,0,0,1,4.34-.75c2.56,0,5.65,1.07,5.6,3.91v6.47c0,.53.1,1.08.27,2.59Zm-2.41-2.39c2.06,0,2.23-1.93,2.23-3.61a6.3,6.3,0,0,0-2.61.28,1.83,1.83,0,0,0-1.25,1.68A1.65,1.65,0,0,0,144.33,349.82Z"/><path class="cls-2" d="M154.49,352.21V334.09h4.76v18.12Z"/><path class="cls-2" d="M164,339.61v-1.9l4.76-1.81v3.71h2.76v3h-2.76v5c0,.32-.2,1.95.91,1.95a15.4,15.4,0,0,0,1.83-.07v2.83a13.45,13.45,0,0,1-2.56.25c-3.24,0-5.19-.45-4.94-4.31v-5.65h-2.46v-3Z"/><path class="cls-2" d="M174.24,352.21V334.09H179V341a4.83,4.83,0,0,1,3.94-1.75,4.41,4.41,0,0,1,4.72,4.54v8.43h-4.77v-7.4c0-1.23-.35-2.56-1.83-2.56-2.36,0-2.06,2.58-2.06,2.73v7.23Z"/><path class="cls-2" d="M208.21,339.41a1.88,1.88,0,0,0-.65-1.6,2.86,2.86,0,0,0-1.94-.58c-1.15,0-2.15.75-2.15,1.65,0,1.33,1.6,1.76,2.93,2.11,3,.78,7.45,1.08,7.45,6,0,3.82-3.76,5.62-7.95,5.62s-7.93-1.23-8-6.14h5c0,1.7,1.23,2.63,3,2.63,1.15,0,2.63-.6,2.63-1.81,0-2.45-3.71-1.93-7.65-3.66a4.55,4.55,0,0,1-2.73-4.41c.2-4.29,4-5.47,7.75-5.47s7.58,1.33,7.28,5.69Z"/><path class="cls-2" d="M224.68,344a2.33,2.33,0,0,0-.38-1.48,1.76,1.76,0,0,0-1.48-.55c-1.73,0-1.83,2.6-1.83,3.91s.1,3.91,1.83,3.91,1.86-1.4,1.86-2.53h4.77a4.73,4.73,0,0,1-2,4,8.15,8.15,0,0,1-4.47,1.33c-4.76,0-6.92-2.31-6.92-6.67,0-4.57,3.14-6.67,6.92-6.67,3.19-.05,6.2,1.2,6.43,4.79Z"/><path class="cls-2" d="M232.29,337.45v-3.36h4.81v3.36Zm0,14.76v-12.6h4.77v12.6Z"/><path class="cls-2" d="M244.34,346.86c0,1.63.41,3,2.19,3a2.08,2.08,0,0,0,2.33-1.81h4.41a4.54,4.54,0,0,1-2.38,3.51,7.35,7.35,0,0,1-4,1c-5,0-7.05-2.15-7.05-7.1,0-4,3-6.24,6.78-6.24,5.11,0,6.75,2.93,6.75,7.62Zm4.52-2.56a3.27,3.27,0,0,0-.58-1.88,1.79,1.79,0,0,0-1.65-.8c-1.66.07-2.06,1.25-2.19,2.68Z"/><path class="cls-2" d="M260.92,341a4.83,4.83,0,0,1,3.94-1.75,4.41,4.41,0,0,1,4.72,4.54v8.43h-4.77v-7.4c-.05-1.23-.35-2.56-1.83-2.56-2.36,0-2.06,2.58-2.06,2.73v7.23h-4.76v-9.36a32,32,0,0,0-.15-3.24h4.84Z"/><path class="cls-2" d="M281,344a2.33,2.33,0,0,0-.38-1.48,1.76,1.76,0,0,0-1.48-.55c-1.73,0-1.83,2.6-1.83,3.91s.1,3.91,1.83,3.91,1.86-1.4,1.86-2.53h4.76a4.72,4.72,0,0,1-2,4,8.18,8.18,0,0,1-4.47,1.33c-4.76,0-6.92-2.31-6.92-6.67,0-4.57,3.13-6.67,6.92-6.67,3.19-.05,6.2,1.2,6.42,4.79Z"/><path class="cls-2" d="M292.25,346.86c0,1.63.4,3,2.18,3a2.09,2.09,0,0,0,2.34-1.81h4.41a4.57,4.57,0,0,1-2.38,3.51,7.35,7.35,0,0,1-4,1c-5,0-7.05-2.15-7.05-7.1,0-4,3-6.24,6.77-6.24,5.12,0,6.75,2.93,6.75,7.62Zm4.52-2.56a3.27,3.27,0,0,0-.58-1.88,1.8,1.8,0,0,0-1.66-.8c-1.65.07-2,1.25-2.18,2.68Z"/><path class="cls-2" d="M322.94,339.79c-.13-1.63-1.36-2.56-3.42-2.56-2.88,0-3.41,3.38-3.41,6.1s.58,5.74,3.41,5.74c2.11,0,3.32-.93,3.42-2.66h5.27c.07,4.57-4.29,6.17-8.69,6.17-5.64,0-8.68-3.38-8.68-9.46s3-9.35,8.68-9.4c4.4,0,8.76,1.5,8.69,6.07Z"/><path class="cls-2" d="M334.82,346.86c0,1.63.4,3,2.18,3a2.07,2.07,0,0,0,2.33-1.81h4.42a4.55,4.55,0,0,1-2.39,3.51,7.31,7.31,0,0,1-4,1c-5.05,0-7.05-2.15-7.05-7.1,0-4,3-6.24,6.77-6.24,5.12,0,6.75,2.93,6.75,7.62Zm4.51-2.56a3.33,3.33,0,0,0-.57-1.88,1.8,1.8,0,0,0-1.66-.8c-1.66.07-2.06,1.25-2.18,2.68Z"/><path class="cls-2" d="M351.4,341a4.8,4.8,0,0,1,3.93-1.75,4.41,4.41,0,0,1,4.72,4.54v8.43h-4.77v-7.4c0-1.23-.35-2.56-1.83-2.56-2.36,0-2.05,2.58-2.05,2.73v7.23h-4.77v-9.36a32,32,0,0,0-.15-3.24h4.84Z"/><path class="cls-2" d="M364.61,339.61v-1.9l4.76-1.81v3.71h2.76v3h-2.76v5c0,.32-.2,1.95.91,1.95a15.4,15.4,0,0,0,1.83-.07v2.83a13.45,13.45,0,0,1-2.56.25c-3.24,0-5.19-.45-4.94-4.31v-5.65h-2.46v-3Z"/><path class="cls-2" d="M378.39,346.86c0,1.63.4,3,2.19,3a2.08,2.08,0,0,0,2.33-1.81h4.41a4.54,4.54,0,0,1-2.38,3.51,7.35,7.35,0,0,1-4,1c-5,0-7.05-2.15-7.05-7.1,0-4,3-6.24,6.78-6.24,5.11,0,6.74,2.93,6.74,7.62Zm4.52-2.56a3.27,3.27,0,0,0-.58-1.88,1.79,1.79,0,0,0-1.65-.8c-1.66.07-2.06,1.25-2.19,2.68Z"/><path class="cls-2" d="M395,342h0c.55-2.08,2.11-2.78,4.22-2.73v4c-.35,0-.68,0-1,0-2.48,0-3.33,1.5-3.26,3.91v5h-4.76v-9.36a32,32,0,0,0-.15-3.24h4.84Z"/><path class="cls-2" d="M416.1,352.21a7.3,7.3,0,0,1-.1-1.71H416a4.39,4.39,0,0,1-4,2.08c-3,0-4.54-1.6-4.49-4.19.05-3.06,2.86-4.31,7-4.31h1.5c0-1.11.25-2.71-1.65-2.64a1.72,1.72,0,0,0-1.51,1.93h-4.49a3.41,3.41,0,0,1,2.18-3.38,10.77,10.77,0,0,1,4.34-.75c2.56,0,5.65,1.07,5.6,3.91v6.47c0,.53.1,1.08.28,2.59Zm-2.41-2.39c2.06,0,2.23-1.93,2.23-3.61a6.33,6.33,0,0,0-2.61.28,1.83,1.83,0,0,0-1.25,1.68A1.65,1.65,0,0,0,413.69,349.82Z"/><path class="cls-2" d="M424.93,339.61v-1.9l4.77-1.81v3.71h2.76v3H429.7v5c0,.32-.2,1.95.9,1.95a15.31,15.31,0,0,0,1.83-.07v2.83a13.38,13.38,0,0,1-2.56.25c-3.23,0-5.19-.45-4.94-4.31v-5.65h-2.46v-3Z"/><path class="cls-2" d="M442.44,352.21V334.09h5.05v7.18h6.14v-7.18h5v18.12h-5v-7.43h-6.17v7.43Z"/><path class="cls-2" d="M476.26,345.91c0,4.64-3.39,6.67-7.33,6.67s-7.32-2-7.32-6.67,3.38-6.67,7.32-6.67S476.26,341.27,476.26,345.91Zm-7.33,3.91c2,0,2.44-2.13,2.44-3.91s-.43-3.91-2.44-3.91-2.43,2.13-2.43,3.91S466.92,349.82,468.93,349.82Z"/><path class="cls-2" d="M487.65,350.83a4.8,4.8,0,0,1-3.93,1.75A4.41,4.41,0,0,1,479,348v-8.43h4.77V347c.05,1.23.35,2.56,1.83,2.56,2.36,0,2-2.58,2-2.73v-7.23h4.77V349a32,32,0,0,0,.15,3.24h-4.84Z"/><path class="cls-2" d="M502.62,343.5a1.51,1.51,0,0,0-.3-1.05A1.63,1.63,0,0,0,501,342a1,1,0,0,0-1.13,1.12c0,.93,1.93.88,4.92,1.81a3.26,3.26,0,0,1,2.53,3.46c0,3.34-3.14,4.19-6,4.19-3.09,0-6.1-.63-6.07-4.46h4.51a1.39,1.39,0,0,0,.33,1.13,1.54,1.54,0,0,0,1.13.57c.93,0,1.6-.35,1.6-1.15,0-2.23-7.45-.9-7.45-5.47,0-3.11,3.31-4,5.82-4,3,0,5.75.77,5.95,4.26Z"/><path class="cls-2" d="M511.44,339.61v-1.9l4.76-1.81v3.71H519v3H516.2v5c0,.32-.2,1.95.91,1.95a15.4,15.4,0,0,0,1.83-.07v2.83a13.45,13.45,0,0,1-2.56.25c-3.24,0-5.19-.45-4.94-4.31v-5.65H509v-3Z"/><path class="cls-2" d="M535.39,345.91c0,4.64-3.39,6.67-7.32,6.67s-7.33-2-7.33-6.67,3.39-6.67,7.33-6.67S535.39,341.27,535.39,345.91Zm-7.32,3.91c2,0,2.43-2.13,2.43-3.91s-.43-3.91-2.43-3.91-2.44,2.13-2.44,3.91S526.06,349.82,528.07,349.82Z"/><path class="cls-2" d="M542.93,341a4.82,4.82,0,0,1,3.94-1.75,4.41,4.41,0,0,1,4.72,4.54v8.43h-4.77v-7.4c-.05-1.23-.35-2.56-1.83-2.56-2.36,0-2.06,2.58-2.06,2.73v7.23h-4.77v-9.36a29.35,29.35,0,0,0-.15-3.24h4.84Z"/><path class="cls-2" d="M535.81,172a7.84,7.84,0,1,1,7.86,7.86A7.83,7.83,0,0,1,535.81,172Zm14.3,0a6.46,6.46,0,1,0-6.44,6.49A6.44,6.44,0,0,0,550.11,172Zm-8.11.52v4h-1.44v-9.22h3c1.68,0,3.44.46,3.44,2.54a2.13,2.13,0,0,1-1.88,2.15v0c1.27.25,1.42.82,1.56,1.82a12.93,12.93,0,0,0,.55,2.67h-1.84c-.1-.53-.25-1.11-.31-1.65a3.65,3.65,0,0,0-.52-2c-.36-.38-.84-.34-1.34-.38Zm1.53-1.44c1.35,0,1.66-.6,1.66-1.31s-.31-1-1.46-1H542v2.35Z"/></svg>