<?xml version="1.0" standalone="no"?>
<!DOCTYPE svg PUBLIC "-//W3C//DTD SVG 1.1//EN" "http://www.w3.org/Graphics/SVG/1.1/DTD/svg11.dtd">
<svg xmlns="http://www.w3.org/2000/svg" xmlns:xlink="http://www.w3.org/1999/xlink" version="1.1" id="Layer_1" x="0px" y="0px" viewBox="0 0 355.6 157.37" style="enable-background:new 0 0 355.6 157.37;" xml:space="preserve" width="355.6000061035156" height="157.3699951171875">
<style type="text/css">
	.st0{fill:#77787B;}
	.st1{fill:#B86646;}
	.st2{display:none;}
	.st3{display:inline;fill:#B0BEBB;}
	.st4{fill:none;}
</style>
<g>
	<path class="st0" d="M324.21,75.51l-1.73-0.19c-2.31-0.26-2.44-0.96-2.44-5.58v-10.7c0-4.48-2.18-8.27-8.26-8.27   c-3.26,0-6.34,1.54-8.65,3.33c-0.19-0.13-0.25-0.64-0.25-1.22V39.44c0-2.82,0.13-6.02,0.19-7.94c-0.13-0.26-0.38-0.39-0.64-0.39   c-2.31,1.22-5.31,2.18-6.92,2.7c-0.32,0.19-0.32,1.09,0,1.28l0.64,0.38c1.92,1.15,1.99,1.54,1.99,5.31v28.96   c0,1.66-0.01,2.81-0.13,3.62c-0.71,1.89-2.61,1.73-3.96,1.71c-5.74-0.08-6.46-3.4-6.46-7.11V55.99c0-1.35,0.06-1.54,1.15-1.54h4.84   c0.58-0.39,0.71-2.12-0.07-2.7h-4.71c-1.09,0-1.15-0.07-1.15-1.22v-5.3c-0.26-0.45-1.29-0.24-1.51-0.01   c-0.78,1.48-1.35,4.42-2.63,5.85c-0.53,0.59-2.08,1.35-3.94,1.93c-0.25,0.39-0.25,1.18,0.14,1.44h1.79c1.28,0,1.34,0.12,1.34,1.85   v14.67c0.05,2.33,2.39,5.91,8.01,6.1c0.01,0.01,0,0.01,0.01,0.02c0.13,0,0.29-0.01,0.44-0.01c0.08,0,0.14,0.01,0.22,0.01   c0.09,0,0.18-0.01,0.28-0.01c2.7-0.03,6.64-0.04,8.7-0.04c2.24,0,4.1,0.06,6.02,0.19c0.44-0.19,0.58-1.47,0.13-1.73l-1.35-0.19   c-2.31-0.32-2.44-0.96-2.44-5.58V58.99c0-2.25,0.19-2.57,1.35-3.53c1.16-0.96,2.82-1.73,5-1.73c4.1,0,6.08,2.75,6.08,6.85v9.16   c0,4.61-0.06,5.19-2.44,5.58l-1.28,0.19c-0.45,0.32-0.32,1.54,0.13,1.73c1.73-0.13,3.65-0.19,5.96-0.19c2.24,0,4.1,0.06,6.41,0.19   C324.53,77.05,324.66,75.83,324.21,75.51z"/>
	<path class="st0" d="M278.24,75.57l-1.52-0.19c-2.29-0.31-2.41-0.95-2.41-5.52v-30c0-2.79,0.12-5.96,0.19-7.87   c-0.12-0.25-0.38-0.38-0.63-0.38c-2.29,1.21-5.27,2.16-6.85,2.66c-0.32,0.19-0.32,1.08,0,1.27l0.63,0.38   c1.9,1.14,1.97,1.52,1.97,5.26v28.67c0,4.57-1.03,5.23-2.41,5.52c-0.37,0.08-0.81,0.13-1.22,0.16c-1.19,0.07-2.13-0.01-3.07-0.15   c-3.79-0.55-4.18-2.72-4.14-5.84l0.38-11.03c0.19-4.76-2.03-7.43-6.6-7.43c-4.63,0-11.8,4.51-11.8,7.81c0,0.57,0.32,0.89,0.89,0.89   c0.95,0,2.66-0.44,3.62-1.2c0.5-0.38,0.57-1.14,0.63-2.16c0.13-1.96,2.28-2.85,4.06-2.85c3.93,0,4.69,3.17,4.63,5.52l-0.04,2.35   c-0.06,0.95-0.44,1.5-1.11,1.75c-0.5,0.19-3.65,1-7.48,2.66c-3.92,1.71-5.32,3.65-5.32,6.12c0,1.77,0.76,3.36,1.97,4.44   c1.08,0.95,2.6,1.46,4.44,1.46c1.77,0,3.17-0.82,4.57-1.59c1.27-0.7,2.03-1.27,2.47-1.27c0.38,0,0.73,0.49,1.17,0.86   c1.27,1.15,2.6,1.28,3.95,1.28c2.76-0.01,5.53,0,6.61,0l0,0l6.17-0.09c2.23,0,6.15,0.19,6.15,0.19   C278.56,77.05,278.69,75.89,278.24,75.57z M254.2,70.44c0,1.33-0.06,2.22-0.82,2.98c-0.64,0.63-2.6,1.58-3.87,1.58   c-3.24,0-4.03-2.73-3.99-3.8c0.1-3.27,1.82-3.87,5.52-5.27c1.28-0.48,2.3-0.65,2.68-0.65c0.38,0,0.61,0.45,0.61,1.15L254.2,70.44z"/>
	<g>
		<path class="st0" d="M115.43,50.87c0-3.97-0.13-11.33-1.21-13.25c-0.45-0.77-1.6-1.22-3.2-1.34l-1.6-0.13    c-0.38-0.45-0.25-1.28,0.13-1.53c2.43,0.13,4.8,0.19,7.3,0.19c2.69,0,4.42-0.06,6.72-0.19c0.51,0.32,0.45,1.15,0.13,1.53    l-1.54,0.13c-1.6,0.13-2.82,0.7-3.2,1.54c-0.9,2.11-0.9,9.47-0.9,13.06v7.23c0,5.57-0.89,11.46-4.48,15.3    c-2.75,3-7.49,4.67-12.22,4.67c-4.41,0-8.83-0.83-11.97-3.52c-3.39-2.82-4.99-7.49-4.99-15.11v-15.1c0-6.65-0.13-7.74-3.84-8.06    l-1.6-0.13c-0.39-0.25-0.26-1.34,0.13-1.53c3.2,0.13,5.38,0.19,7.93,0.19c2.62,0,4.74-0.06,7.87-0.19    c0.38,0.19,0.51,1.28,0.13,1.53l-1.54,0.13c-3.71,0.32-3.84,1.41-3.84,8.06v13.82c0,10.31,3.2,17.09,12.99,17.09    c9.28,0,12.8-7.3,12.8-17.03V50.87z"/>
		<path class="st0" d="M147.16,67.45c0,6.72,0.13,7.68,3.84,8l2.05,0.19c0.38,0.26,0.26,1.41-0.13,1.6    c-3.65-0.13-5.82-0.19-8.38-0.19c-2.56,0-4.8,0.06-8.9,0.19c-0.38-0.19-0.51-1.28,0-1.6l2.31-0.19c3.65-0.32,3.97-1.28,3.97-8    V38.84c0-1.98,0-2.05-1.92-2.05h-3.52c-2.75,0-6.27,0.13-7.87,1.6c-1.54,1.41-2.18,2.81-2.88,4.41c-0.51,0.38-1.41,0.06-1.66-0.45    c1.02-2.88,1.98-6.98,2.43-9.53c0.19-0.13,1.03-0.19,1.22,0c0.38,2.05,2.49,1.98,5.44,1.98h25.92c3.46,0,4.03-0.13,4.99-1.79    c0.32-0.13,1.02-0.06,1.15,0.19c-0.7,2.62-1.15,7.81-0.96,9.73c-0.25,0.51-1.34,0.51-1.66,0.13c-0.19-1.6-0.64-3.97-1.6-4.67    c-1.47-1.09-3.91-1.6-7.42-1.6h-4.54c-1.92,0-1.85,0.06-1.85,2.18V67.45z"/>
		<path class="st0" d="M181.21,56.38c-3.07,0-3.2,0.13-3.2,2.05v9.03c0,6.72,0.32,7.61,3.91,8l1.86,0.19    c0.38,0.26,0.26,1.41-0.13,1.6c-3.45-0.13-5.63-0.19-8.13-0.19c-2.75,0-4.93,0.13-7.42,0.19c-0.38-0.19-0.51-1.22-0.13-1.6    l1.09-0.19c3.58-0.64,3.71-1.28,3.71-8V44.4c0-6.72-0.45-7.81-3.77-8.06l-1.67-0.13c-0.38-0.25-0.25-1.41,0.13-1.6    c3.14,0.06,5.31,0.19,8.06,0.19c2.5,0,4.67-0.06,7.43-0.19c0.39,0.19,0.51,1.34,0.13,1.6l-1.22,0.13    c-3.71,0.38-3.84,1.34-3.84,8.06v7.36c0,1.98,0.13,2.05,3.2,2.05h18.3c3.07,0,3.2-0.07,3.2-2.05V44.4c0-6.72-0.13-7.68-3.91-8.06    l-1.22-0.13c-0.38-0.25-0.25-1.41,0.13-1.6c2.94,0.13,5.12,0.19,7.74,0.19c2.5,0,4.67-0.06,7.55-0.19    c0.39,0.19,0.51,1.34,0.13,1.6l-1.35,0.13c-3.71,0.38-3.84,1.34-3.84,8.06v23.04c0,6.72,0.12,7.55,3.84,8l1.54,0.19    c0.38,0.26,0.25,1.41-0.13,1.6c-3.07-0.13-5.25-0.19-7.75-0.19c-2.62,0-4.93,0.06-7.74,0.19c-0.38-0.19-0.51-1.22-0.13-1.6    l1.22-0.19c3.91-0.64,3.91-1.28,3.91-8v-9.03c0-1.92-0.13-2.05-3.2-2.05H181.21z"/>
		<path class="st0" d="M220.24,60.66c-1.67,0-1.73,0.13-1.73,1.73c0,6.46,3.78,11.96,10.63,11.96c2.11,0,3.9-0.64,5.89-3.14    c0.64-0.19,1.09,0.2,1.15,0.77c-2.11,4.34-6.72,5.95-10.05,5.95c-4.16,0-7.43-1.79-9.28-4.22c-1.92-2.5-2.69-5.5-2.69-8.32    c0-7.87,5.19-14.47,12.87-14.47c5.5,0,9.09,3.78,9.09,7.62c0,0.9-0.13,1.41-0.26,1.67c-0.19,0.38-1.09,0.44-3.78,0.44H220.24z     M224.2,58.74c4.74,0,6.14-0.26,6.66-0.64c0.19-0.13,0.38-0.38,0.38-1.21c0-1.79-1.21-4.03-4.93-4.03c-3.77,0-7.04,3.45-7.1,5.57    c0,0.13,0,0.32,0.45,0.32H224.2z"/>
	</g>
	<g>
		<path class="st0" d="M312.07,35.15c0-2.24,1.82-4.07,4.09-4.07c2.25,0,4.07,1.82,4.07,4.07c0,2.27-1.81,4.09-4.07,4.09    C313.89,39.24,312.07,37.42,312.07,35.15z M319.5,35.15c0-1.84-1.5-3.35-3.35-3.35c-1.86,0-3.37,1.51-3.37,3.35    c0,1.86,1.51,3.37,3.37,3.37C318.01,38.52,319.5,37.01,319.5,35.15z M315.29,35.42v2.07h-0.75V32.7h1.55    c0.88,0,1.79,0.24,1.79,1.32c0,0.55-0.34,0.99-0.98,1.12v0.02c0.66,0.13,0.74,0.42,0.81,0.94c0.07,0.45,0.12,0.95,0.28,1.39h-0.95    c-0.05-0.27-0.13-0.57-0.16-0.86c-0.05-0.41-0.05-0.79-0.27-1.02c-0.18-0.19-0.43-0.17-0.69-0.19H315.29z M316.08,34.67    c0.7-0.02,0.87-0.31,0.87-0.68c0-0.36-0.16-0.54-0.76-0.54h-0.9v1.23H316.08z"/>
	</g>
	<path class="st0" d="M120.2,105.41c-3.07,0-3.2,0.13-3.2,2.05v9.02c0,6.72,0.32,7.62,3.9,8l1.86,0.19c0.38,0.26,0.26,1.41-0.13,1.6   c-3.46-0.13-5.63-0.19-8.13-0.19c-2.75,0-4.93,0.13-7.42,0.19c-0.38-0.19-0.51-1.22-0.13-1.6l1.09-0.19c3.58-0.64,3.71-1.28,3.71-8   V93.44c0-6.72-0.45-7.81-3.78-8.06l-1.66-0.13c-0.38-0.26-0.26-1.41,0.13-1.6c3.14,0.06,5.31,0.19,8.06,0.19   c2.5,0,4.67-0.06,7.42-0.19c0.38,0.19,0.51,1.34,0.13,1.6l-1.22,0.13c-3.71,0.38-3.84,1.34-3.84,8.06v7.36   c0,1.98,0.13,2.05,3.2,2.05h18.3c3.07,0,3.2-0.06,3.2-2.05v-7.36c0-6.72-0.13-7.68-3.9-8.06l-1.22-0.13   c-0.38-0.26-0.26-1.41,0.13-1.6c2.94,0.13,5.12,0.19,7.74,0.19c2.5,0,4.67-0.06,7.55-0.19c0.38,0.19,0.51,1.34,0.13,1.6l-1.34,0.13   c-3.71,0.38-3.84,1.34-3.84,8.06v23.04c0,6.72,0.13,7.55,3.84,8l1.54,0.19c0.38,0.26,0.26,1.41-0.13,1.6   c-3.07-0.13-5.25-0.19-7.74-0.19c-2.62,0-4.93,0.06-7.74,0.19c-0.38-0.19-0.51-1.22-0.13-1.6l1.22-0.19c3.9-0.64,3.9-1.28,3.9-8   v-9.02c0-1.92-0.13-2.05-3.2-2.05H120.2z"/>
	<path class="st0" d="M178.52,113.2c0,8-5.5,13.76-13.5,13.76c-7.36,0-13.12-5.18-13.12-13.18c0-8.06,6.08-13.82,13.63-13.82   C172.69,99.95,178.52,105.33,178.52,113.2z M164.76,101.87c-4.22,0-7.36,4.03-7.36,11.07c0,5.82,2.62,12.1,8.25,12.1   s7.36-5.89,7.36-10.82C173.01,108.78,170.84,101.87,164.76,101.87z"/>
	<path class="st0" d="M240.4,103.53c-1.09,0-1.15,0.19-1.15,1.54v11.97c0,3.71,0.45,7.1,4.67,7.1c0.64,0,1.22-0.13,1.73-0.32   c0.58-0.19,1.41-0.9,1.6-0.9c0.51,0,0.77,0.7,0.64,1.09c-1.15,1.34-3.46,2.94-6.72,2.94c-5.5,0-6.66-3.07-6.66-6.91v-14.66   c0-1.73-0.06-1.86-1.34-1.86h-1.79c-0.38-0.26-0.45-0.96-0.19-1.34c1.86-0.58,3.46-1.41,4.1-1.98c0.83-0.77,2.05-2.5,2.69-3.78   c0.32-0.13,1.09-0.13,1.34,0.32v2.88c0,1.15,0.06,1.22,1.15,1.22h7.1c0.77,0.58,0.64,2.3,0.06,2.69H240.4z"/>
	<path class="st0" d="M274.92,113.2c0,8-5.5,13.76-13.5,13.76c-7.36,0-13.12-5.18-13.12-13.18c0-8.06,6.08-13.82,13.63-13.82   C269.1,99.95,274.92,105.33,274.92,113.2z M261.16,101.87c-4.22,0-7.36,4.03-7.36,11.07c0,5.82,2.62,12.1,8.26,12.1   s7.36-5.89,7.36-10.82C269.42,108.78,267.24,101.87,261.16,101.87z"/>
	<path class="st0" d="M279.41,107.69c0-2.5,0-2.82-1.73-3.97l-0.58-0.38c-0.26-0.26-0.26-0.96,0.06-1.15   c1.47-0.51,5.12-2.18,6.4-3.14c0.26,0,0.58,0.13,0.7,0.45c-0.13,1.47-0.13,2.43-0.13,3.01c0,0.38,0.26,0.7,0.7,0.7   c2.69-1.66,5.7-3.26,8.96-3.26c5.31,0,7.49,3.65,7.49,7.94v11.01c0,4.61,0.13,5.25,2.43,5.57l1.41,0.19   c0.45,0.32,0.32,1.41-0.13,1.6c-1.92-0.13-3.78-0.19-6.02-0.19c-2.3,0-4.22,0.06-5.95,0.19c-0.45-0.19-0.58-1.28-0.13-1.6   l1.22-0.19c2.37-0.38,2.43-0.96,2.43-5.57v-9.54c0-3.65-1.66-6.33-6.01-6.33c-2.43,0-4.54,1.02-5.44,2.24   c-0.83,1.09-0.96,1.98-0.96,3.84v9.79c0,4.61,0.13,5.18,2.43,5.57l1.15,0.19c0.45,0.32,0.32,1.41-0.13,1.6   c-1.73-0.13-3.58-0.19-5.82-0.19c-2.3,0-4.22,0.06-6.02,0.19c-0.45-0.19-0.58-1.28-0.13-1.6l1.34-0.19   c2.37-0.32,2.43-0.96,2.43-5.57V107.69z"/>
	<path class="st0" d="M187.74,116.65c0,4.42,1.09,7.36,5.95,7.36c1.73,0,3.78-0.7,5.18-1.92c0.83-0.77,1.28-1.73,1.28-3.71v-10.5   c0-4.16-0.45-4.29-2.37-5.06l-0.83-0.32c-0.45-0.26-0.45-1.15,0.06-1.41c2.56-0.06,6.08-0.51,7.49-1.15   c0.32,0.06,0.51,0.19,0.58,0.45c-0.13,1.22-0.19,3.2-0.19,5.57v10.75c0,5.06,0.19,6.98,1.98,6.98c0.77,0,1.6-0.13,2.5-0.32   c0.38,0.32,0.45,1.6-0.06,1.86c-2.5,0.51-6.21,1.15-8.38,2.37c-0.32,0-0.64-0.19-0.77-0.45v-2.62c0-0.58-0.19-0.9-0.58-0.9   c-1.92,1.22-5.05,3.33-8.83,3.33c-5.63,0-7.74-2.82-7.74-8v-10.69c0-4.03,0-4.61-1.92-5.44l-0.77-0.32   c-0.38-0.32-0.32-1.22,0.13-1.41c2.94-0.06,5.44-0.64,6.85-1.15c0.38,0.06,0.58,0.19,0.64,0.45c-0.13,1.09-0.19,2.43-0.19,5.57   V116.65z"/>
	<path class="st0" d="M227.04,101.1c0.58,1.41,1.02,3.46,1.02,5.18c-0.26,0.45-1.22,0.58-1.54,0.19c-1.09-2.82-3.01-4.67-5.63-4.67   c-2.5,0-4.1,1.6-4.1,3.9c0,2.62,2.69,4.03,4.93,5.31c3.39,1.92,6.53,4.1,6.53,8.64c0,4.86-4.48,7.29-9.22,7.29   c-3.01,0-5.25-0.64-6.85-1.92c-0.51-1.22-0.9-4.35-0.77-6.46c0.32-0.38,1.15-0.45,1.47-0.06c1.09,3.52,3.14,6.59,6.78,6.59   c2.3,0,4.29-1.34,4.29-4.1c0-2.94-2.56-4.54-4.93-5.89c-3.71-2.11-6.33-4.35-6.33-7.87c0-4.67,3.84-7.3,8.7-7.3   C224.1,99.95,226.46,100.59,227.04,101.1z"/>
</g>
<g>
	<rect x="42.33" y="52.61" class="st1" width="5.42" height="7.7"/>
	<rect x="48.79" y="53.79" class="st1" width="7.7" height="5.38"/>
	<rect x="57.54" y="52.61" class="st1" width="5.42" height="7.7"/>
	<g>
		<path class="st1" d="M55.37,37.58c0-1.51-1.21-2.82-2.72-2.82c-1.51,0-2.73,1.34-2.73,2.84l0,15.12h5.44L55.37,37.58z"/>
		<path class="st1" d="M55.37,75.36c0,1.51-1.21,2.82-2.72,2.82c-1.51,0-2.73-1.34-2.73-2.85l0-15.12h5.44L55.37,75.36z"/>
		<path class="st1" d="M47.78,37.58c0-1.51-1.21-2.82-2.72-2.82c-1.51,0-2.73,1.34-2.73,2.84l0,7.5h5.44L47.78,37.58z"/>
		<path class="st1" d="M62.97,37.58c0-1.51-1.21-2.82-2.72-2.82c-1.51,0-2.73,1.34-2.73,2.84l0,7.5h5.44L62.97,37.58z"/>
		<path class="st1" d="M47.78,75.31c0,1.51-1.21,2.82-2.72,2.82c-1.51,0-2.73-1.34-2.73-2.85l0-7.48h5.44L47.78,75.31z"/>
		<path class="st1" d="M62.97,75.31c0,1.51-1.21,2.82-2.72,2.82c-1.51,0-2.73-1.34-2.73-2.85l0-7.48h5.44L62.97,75.31z"/>
		<path class="st1" d="M33.92,51.59l14.97,0v-5.45h-0.24l-14.75,0c-1.51,0-2.77,1.21-2.77,2.72c0,1.5,1.2,2.71,2.7,2.73h0    C33.85,51.59,33.91,51.59,33.92,51.59C33.93,51.59,33.91,51.59,33.92,51.59"/>
		<path class="st1" d="M33.92,66.81l14.97,0v-5.45h-0.24l-14.75,0c-1.51,0-2.77,1.21-2.77,2.72c0,1.5,1.2,2.71,2.7,2.73h0    C33.85,66.81,33.91,66.81,33.92,66.81C33.93,66.81,33.91,66.81,33.92,66.81"/>
		<path class="st1" d="M71.36,66.81l-14.97,0v-5.45h0.24l14.75,0c1.51,0,2.77,1.21,2.77,2.72c0,1.5-1.2,2.71-2.7,2.73h0    C71.44,66.81,71.37,66.81,71.36,66.81C71.35,66.81,71.37,66.81,71.36,66.81"/>
		<path class="st1" d="M33.92,59.2l7.37,0v-5.45h-0.24l-7.15,0c-1.51,0-2.77,1.21-2.77,2.72c0,1.5,1.2,2.71,2.7,2.73h0    C33.85,59.2,33.91,59.2,33.92,59.2C33.93,59.2,33.91,59.2,33.92,59.2"/>
		<path class="st1" d="M71.37,59.2l-7.37,0v-5.45h0.24l7.15,0c1.51,0,2.77,1.21,2.77,2.72c0,1.5-1.2,2.71-2.7,2.73h0    C71.44,59.2,71.37,59.2,71.37,59.2C71.36,59.2,71.38,59.2,71.37,59.2"/>
		<path class="st1" d="M71.36,51.59l-14.97,0v-5.45h0.24l14.75,0c1.51,0,2.77,1.21,2.77,2.72c0,1.5-1.2,2.71-2.7,2.73h0    C71.44,51.59,71.37,51.59,71.36,51.59C71.35,51.59,71.37,51.59,71.36,51.59"/>
	</g>
</g>
<g class="st2">
	<rect x="240.08" y="126.26" class="st3" width="56.82" height="31.11"/>
	<rect x="265.06" class="st3" width="56.82" height="31.11"/>
	
		<rect x="-12.86" y="56.21" transform="matrix(4.487883e-11 -1 1 4.487883e-11 -56.2061 87.3181)" class="st3" width="56.82" height="31.11"/>
	
		<rect x="311.63" y="50.86" transform="matrix(4.503870e-11 -1 1 4.503870e-11 273.627 406.4648)" class="st3" width="56.82" height="31.11"/>
</g>
<rect class="st4" width="355.6" height="157.37"/>
</svg>